# xmcd CD database file
#
# Track frame offsets:
#	150
#	31060
#	47317
#	68383
#	92196
#	115981
#	129838
#	150276
#	170714
#	189258
#	230115
#	259544
#	285926
#	306608
#	323287
#
# Disc length: 4601 seconds
#
# Revision: 0
# Processed by: cddbd v1.5.2PL0 Copyright (c) Steve Scherf et al.
# Submitted via: CDex 1.70beta2
#
DISCID=b311f70f
DTITLE=Chet Baket and Bill Evans - The Complete Legendary Sessios
DYEAR=1959
DGENRE=Jazz
TTITLE0=Alone Together
TTITLE1=How High the Moon
TTITLE2=It Never Entered My Mind
TTITLE3='Tis Autumn
TTITLE4=If You Could See Me Now
TTITLE5=September Song
TTITLE6=You'd Be So Nice to Come Home To
TTITLE7=Time on My Hands
TTITLE8=You and the Night and the Music
TTITLE9=Early Morning Mood
TTITLE10=Show Me
TTITLE11=I Talk to the Trees
TTITLE12=Thank Heaven for Little Girls
TTITLE13=I Could Have Danced All Night
TTITLE14=Almost Like Being in Love
EXTD=YEAR: 1959
EXTT0=
EXTT1=
EXTT2=
EXTT3=
EXTT4=
EXTT5=
EXTT6=
EXTT7=
EXTT8=
EXTT9=
EXTT10=
EXTT11=
EXTT12=
EXTT13=
EXTT14=
PLAYORDER=
